<?xml version="1.0" encoding="utf-8"?>
<!-- Generator: Adobe Illustrator 22.1.0, SVG Export Plug-In . SVG Version: 6.00 Build 0)  -->
<svg fill="#F0F0F0" version="1.1" id="Layer_1" xmlns="http://www.w3.org/2000/svg" xmlns:xlink="http://www.w3.org/1999/xlink" x="0px" y="0px" width="1900px" height="52.884px" viewBox="0 0 1900 52.884" enable-background="new 0 0 1900 52.884" xml:space="preserve">
<g>

	<path fill="url(#SVGID_1_)" d="M1900,12.417c-3.808,0-12.58,7.041-14.116,8.113c-2.186,1.525-6.289,0.352-8.698,0.658
		c-1.417,0.179-6.108-0.47-7.364-0.064c-0.783,0.662-1.803,1.081-2.83,1.09c-2.592,0.025-9.031,4.755-11.309,4.81
		c-1.002,0.143-1.911,0.285-2.912,0.428c-1.756,0.473-7.343,0.198-10.103,0.057c-0.92-0.047-2.227,1.035-2.253,1.321
		c-0.162,1.791-1.177,3.326-3.085,3.84c-1.132,0.306-2.318,0.347-3.515,0.404c-0.535,0.742-4.663,2.264-6.702,2.461
		c-1.42,0.137-2.227,0.442-3.62,0.014c-0.17-0.052-0.332-0.003-0.499-0.074c-0.812,0.267-1.702,0.391-2.535,0.191
		c-1.865-0.449-9.967,2.283-11.986,1.854c0,0-8.893,1.672-11.572,2.242c-3.847,0.818-26.784,1.77-29.776,2.078
		c-0.964,0.1-1.939,0.199-2.904,0.298c-1.453,0.15-4.91,0.281-5.962,0.61c-1.982,0.594-4.036,1.241-5.98,1.94
		c-2.131,1.094-4.248,0.455-5.359-0.876c-0.649-0.362-2.72-1.61-6.52-1.521c0,0.027-24.507,6.21-26.122,6.441
		c0.271-0.039-3.841,0.347-5.307,0.515c-0.498,0.429-1.089,0.784-1.822,0.952c-3.652,0.838-7.124,1.326-10.839,0.76
		c-2.06-0.314-20.383-6.396-22.302-6.474c-6.368-0.26-24.47,1.59-27.043,1.287c-0.416-0.049-0.759-0.124-1.11-0.195
		c-0.003,0.017-0.005,0.035-0.007,0.052c-8.675-2.862-18.407-3.56-26.952-3.176c-1.578,0.071-2.688-0.536-3.341-1.446
		c-0.316-0.042-0.641-0.086-1.004-0.135c-2.425-0.333-4.229-5.748-4.912-6.259c-1.657-1.072-21.848,0.974-24.787,0.98
		c-4.032,0.009-10.132,0.03-12.808-3.616c-0.262-0.358-2.101-1.978-2.865-1.978c-0.007,0-0.013,0-0.02,0
		c-0.334,3.8-0.655,1.019-0.963,1.024c-0.865,0.016-3.013,0.26-3.404,0.374c-0.606,0.178-1.211,0.584-1.816,0.762
		c-1.627,0.478-6.755,0.12-8.523-0.052c-0.197-0.019-0.373-0.03-0.561-0.071c-0.627,0.32-1.308,0.55-1.961,0.554
		c-5.958,0.044-11.344-2.408-17.243-3.266c-1.436-0.209-14.236,4.834-15.922,5.244c-0.01,0.002-0.02,0.009-0.03,0.011
		c-2.326,0.565-8.463,0.381-9.67-0.532c-0.61-0.461-4.376,0.894-6.183-0.201c-1.026-0.186-2.068-0.374-3.093-0.56
		c-3.104-0.303-13.103,9.413-15.531,10.626c-5.65,2.822-9.443,2.571-15.708,2.269c-1.212-0.059-2.251-0.65-3.021-1.494
		c-2.154-0.333-4.323-0.226-6.603,0.305c-2.091,0.594-3.685-0.288-4.484-1.673c-1.054-0.16-2.088-0.339-3.132-0.769
		c-0.763-0.315-1.235-0.794-1.577-1.327c-1.082-0.187-2.176-0.296-3.272-0.298c-1.622-0.002-3.051-0.943-3.748-2.266
		c0.024,0.09,0.047,0.181,0.071,0.271c-0.366-0.26-0.7-0.555-0.991-0.876c-1.931,0.028-3.85,0.188-5.748,0.574
		c-2.191,2.544-6.039,0.77-7.024-1.772c-0.604-1.558-12.765,2.736-17.384-0.055c-1.236-0.747-2.345-1.341-3.439-1.895
		c-0.394,0.09-0.943,0.284-1.952,0.571c-2.699,0.768-13.996-3.566-14.958-4.798c-2.344-0.505-9.037,0.34-10.282,0.319
		c-0.63-0.05-3.015,0.898-3.9,1.148c-0.009,0.002-0.019,0.002-0.029,0.004c-2.567,0.674-4.753,0.64-6.545-0.483
		c-2.399-0.535-4.731-1.065-6.451-0.369c-2.536,1.026-5.836-0.209-6.275-2.726c-0.201-0.176-0.39-0.339-0.603-0.524
		c-1.058-0.912-6.564,5.659-10.952,5.111c-1.178,0.166-8.696,5.405-10.449,5.402c-0.802,0.349-1.604,0.699-2.407,1.049
		c-1.647,0.697-14.28,0.396-14.739,0.443c-1.754,0.184-8.598,2.804-8.964,4.288c-0.05,0.204-0.099,0.408-0.149,0.612
		c-0.701,2.841-18.646,5.789-19.92,5.732c-3.531-0.156-11.274-2.14-12.432-1.795c-4.11,1.225-9.372,1.085-13.882,1.085
		c-0.146,0-0.717,0.137-0.936,0.141c-1.631,0.033-9.709,0.406-11.394-0.187c-4.758-1.675-4.811-2.818-8.983-1.059
		c-2.051,0.865-10.906-2.231-13.507-2.481c-3.957-0.464-6.48-9.496-7.704-9.06c-0.777,0.277-15.126,6.521-16.453,6.487
		c-5.588-0.142-11.114-0.272-16.699-0.525c-0.791-0.036-4.77,1.532-6.49,1.497c-0.854,0.672-1.951,1.157-3.237,1.54
		c-1.412,0.419-2.783-0.378-4.106-0.234c-0.595,0.065-4.167,2.042-5.847,1.668c-6.598-1.469-9.443-1.839-14.172-5.627
		c-0.844-0.676-3.839-0.856-5.669-1.128c-1.316-0.195-15.323,2.751-17.038,2.643c-3.241-0.204-4.049-0.237-7.032-1.163
		c-0.984-0.305-7.075-0.611-8.634,0.835c-1.566,1.452-14.491,7.378-16.036,7.99c-0.379,0.15-0.648,0.25-0.855,0.323
		c-0.784,0.781-1.922,1.246-3.04,1.246c-0.394,0-4.98-0.244-6.253-1.016c-2.598-1.576-6.21-0.358-9.038-0.387
		c-0.741-0.008-1.404-0.203-1.985-0.513c-0.548-0.037-1.095-0.075-1.642-0.112c-1.083-0.074-6.407,0.033-7.376,0.115
		c-3.544,0.299-3.124-0.806-5.764-1.486c0.04,0.01-2.507-0.407-3.626-1.74c-0.543-0.647-3.444-2.793-4.737-2.924
		c-2.318-0.389-15.65-1.012-19.025,0.051c-5.578,1.757-9.431,2.025-15.499,2.822c-4.341,0.57-10.325-1.611-13.092-1.712
		c-7.626-0.282-18.291,4.303-25.304-0.193c-0.644-0.413-9.27-0.09-10.492,0.051c-0.073,0.016-2.002,1.434-3.301,1.35
		c-3.637-0.237-18.888,2.914-23.487,1.669c-1.458-0.395-4.542,1.743-6.419,1.716c-2.136-0.03-3.642-1.035-5.556-1.596
		c-2.641-0.773-9.799,1.128-11.94,0.649c-0.321-0.071-1.708,0.37-2.218,0.558c-5.557,2.051-30.998,2.437-35.38,1.269
		c-0.225-0.06-0.416-0.168-0.617-0.263c-0.883-0.014-1.775-0.086-2.68-0.214c-0.479-0.011-0.958-0.022-1.437-0.032
		c-2.52,0.114-26.775-2.177-34.925-3.444c-1.091-0.17-1.889-0.896-2.406-1.785c-0.717-0.58-4.232-1.309-5.229-1.074
		c-1.202,0.284-2.57,0.989-3.813,0.972c-0.293,0.099-1.202,0.374-1.34,0.461c-0.515,0.324-1.055,0.443-1.602,0.491
		c-2.199,0.561-4.775,0.7-7.039,0.651c-2.808-0.061-7.788-2.226-9.849-3.307c-0.226-0.163-0.372-0.327-0.501-0.491
		c-0.535-0.309-3.854,0.437-5.252,0.13c-1.301-0.286-2.431-0.625-3.445-1.119c-0.262,0.009-0.532,0.01-0.792,0.022
		c-1.578,0.071-2.689-0.536-3.341-1.446c-0.316-0.042-0.641-0.086-1.005-0.135c-2.425-0.333-9.308-4.449-10.443-5.215
		c-1.095-0.74-1.849-1.438-2.402-1.845c-0.03,0-0.059-0.321-0.089-0.321c0,0-2.047-0.111-2.796-0.779
		c-0.72-0.177-1.48-0.1-1.773-0.306c-0.206-0.145-0.382-0.325-0.558-0.503c-1.037,0.472-2.316,0.518-3.696-0.203
		c-0.041-0.024-0.075-0.046-0.115-0.069c-0.014,0.022-0.028,0.046-0.042,0.069c-0.266-0.176-0.533-0.352-0.8-0.528
		c-0.12-0.079-0.231-0.181-0.347-0.274c-0.275-0.17-1.137-0.252-1.306-0.165c-0.386,0.199-2.392,4.854-5.331,4.861
		c-4.032,0.009-10.133,0.03-12.808-3.616C755.298,31.62,753.459,30,752.696,30c-0.007,0-0.014,0-0.02,0
		c-0.334,3.8-0.655,1.019-0.963,1.024c-0.865,0.016-3.013,0.26-3.404,0.374c-0.605,0.178-1.211,0.584-1.817,0.762
		c-1.626,0.478-3.042,0.083-3.993-0.895c-1.377,0.571-2.761,1.072-4.53,0.901c-0.197-0.019-0.373-0.058-0.561-0.099
		c-0.627,0.32-1.309,0.535-1.961,0.54c-5.958,0.044-11.344-2.415-17.242-3.273c-1.437-0.209-12.859,1.053-12.837,1.37
		c0.12,1.718-1.399,3.463-3.086,3.873c-0.01,0.002-0.021,0.006-0.031,0.009c-2.326,0.565-8.463,0.38-9.669-0.533
		c-0.61-0.461-4.376,0.893-6.183-0.202c-1.026-0.186-2.067-0.374-3.094-0.56c-3.104-0.303-11.451,0.756-12.38,1.081
		c-0.686,1.033-0.722,8.331-3.151,9.544c-5.649,2.822-9.443,2.571-15.707,2.268c-1.213-0.059-2.251-0.65-3.021-1.494
		c-2.154-0.333-4.323-0.226-6.604,0.305c-2.092,0.594-3.684-0.288-4.484-1.673c-1.053-0.16-2.087-0.339-3.131-0.769
		c-0.763-0.315-1.235-0.794-1.577-1.327c-1.081-0.187-2.176-0.296-3.272-0.298c-1.622-0.002-3.052-0.943-3.748-2.266
		c0.023,0.09,0.046,0.181,0.07,0.271c-0.365-0.26-0.699-0.555-0.991-0.876c-1.931,0.028-3.849,0.188-5.747,0.574
		c-2.191,2.544-6.039,0.77-7.024-1.772c-0.604-1.558-12.765,2.736-17.385-0.055c-1.236-0.747-4.382-1.611-5.391-1.324
		c-2.699,0.768-23.995-4.459-25.24-4.479c-0.63-0.05-3.016,0.898-3.9,1.148c-0.009,0.002-0.02,0.002-0.029,0.004
		c-2.567,0.674-4.753,0.64-6.545-0.483c-2.398-0.535-4.731-1.065-6.451-0.369c-2.536,1.026-5.837-0.209-6.275-2.726
		c-0.201-0.176-0.389-0.339-0.603-0.524c-1.058-0.912-6.564,5.659-10.952,5.111c-1.178,0.166-8.696,5.405-10.448,5.402
		c-0.803,0.349-1.604,0.699-2.407,1.049c-1.647,0.697-14.28,0.396-14.739,0.443c-1.754,0.184-8.598,2.804-8.964,4.288
		c-0.05,0.204-0.099,0.408-0.149,0.612c-0.701,2.841-18.645,5.789-19.92,5.732c-3.531-0.156-11.273-2.009-12.431-1.664
		c-4.112,1.225-9.376,1.154-13.887,1.216c-0.006,0,0.005,0.002,0.002,0.003c-0.144,0.003-0.714,0.005-0.933,0.009
		c-1.631,0.032-9.71,0.29-11.394-0.303c-4.758-1.675-4.811-2.827-8.984-1.067c-2.05,0.865-10.906-2.237-13.506-2.487
		c-3.956-0.464-6.48-9.498-7.704-9.062c-0.777,0.277-15.127,6.521-16.453,6.487c-5.587-0.142-11.114-0.272-16.698-0.525
		c-0.792-0.036-8.441,2.654-9.728,3.037c-1.411,0.419-2.783-0.378-4.106-0.234c-0.595,0.065-4.167,2.042-5.847,1.668
		c-6.598-1.469-9.443-1.839-14.172-5.627c-0.844-0.676-3.839-0.856-5.67-1.128c-1.316-0.195-15.323,2.751-17.038,2.643
		c-3.24-0.204-4.049-0.237-7.032-1.163c-0.983-0.305-7.075-0.611-8.634,0.835c-1.566,1.452-14.491,7.378-16.036,7.99
		c-0.379,0.15-0.647,0.25-0.854,0.323c-0.784,0.781-1.922,1.246-3.041,1.246c-0.394,0-4.98-0.244-6.252-1.016
		c-2.599-1.576-6.21-0.358-9.038-0.387c-0.741-0.008-1.405-0.203-1.986-0.513c-0.548-0.037-1.095-0.075-1.642-0.112
		c-1.083-0.074-2.051-0.476-2.808-1.119c-0.738,0.011-1.388-0.003-1.51,0.106c-0.06,0.054-0.16,0.082-0.251,0.116
		c-0.777,0.621-1.838,0.93-2.807,1.012c-3.544,0.299-3.124-0.806-5.764-1.486c0.04,0.01-2.507-0.407-3.626-1.74
		c-0.543-0.647-3.444-2.793-4.737-2.924c-2.318-0.389-4.463-3.204-5.466-3.256c-3.372-0.173-10.184,2.244-13.559,3.307
		c-5.579,1.757-9.43,2.025-15.499,2.822c-4.341,0.57-10.325-1.611-13.092-1.712c-7.626-0.282-37.798,1.292-39.097,1.208
		c-3.637-0.237-13.05-2.077-15.408-2.396c-1.353-0.183-3.244,5.374-8.078,4.065c-1.458-0.395-4.542,1.743-6.419,1.716
		c-2.136-0.03-3.642-1.035-5.556-1.596c-2.64-0.773-9.799,1.128-11.94,0.649c-0.321-0.071-0.603-0.136-0.859-0.195
		c-0.402,0.3-0.848,0.565-1.359,0.753c-5.556,2.051-30.997,2.437-35.38,1.269c-0.362-0.097-0.688-0.249-0.994-0.425
		c-1.247-0.028-2.493-0.057-3.739-0.085c-2.52,0.114-26.775-2.177-34.925-3.444c-1.091-0.17-1.889-0.896-2.407-1.785
		c-1.34-1.083-3.385-1.509-5.229-1.074c-1.207,0.285-2.583,0.997-3.831,0.974c-0.263-0.005-1.092,0.314-1.323,0.459
		c-0.515,0.324-1.055,0.443-1.601,0.491c-2.199,0.561-4.775,0.7-7.039,0.651C2.585,47.148,0.703,43.547,0,43.938L0,0l1900,0V12.417z
		"/>
	<path d="M1900,12.417c-3.808,0-12.58,7.041-14.116,8.113c-2.186,1.525-6.289,0.352-8.698,0.658
		c-1.417,0.179-6.108-0.47-7.364-0.064c-0.783,0.662-1.803,1.081-2.83,1.09c-2.592,0.025-9.031,4.755-11.309,4.81
		c-1.002,0.143-1.911,0.285-2.912,0.428c-1.756,0.473-7.343,0.198-10.103,0.057c-0.92-0.047-2.227,1.035-2.253,1.321
		c-0.162,1.791-1.177,3.326-3.085,3.84c-1.132,0.306-2.318,0.347-3.515,0.404c-0.535,0.742-4.663,2.264-6.702,2.461
		c-1.42,0.137-2.227,0.442-3.62,0.014c-0.17-0.052-0.332-0.003-0.499-0.074c-0.812,0.267-1.702,0.391-2.535,0.191
		c-1.865-0.449-9.967,2.283-11.986,1.854c0,0-8.893,1.672-11.572,2.242c-3.847,0.818-26.784,1.77-29.776,2.078
		c-0.964,0.1-1.939,0.199-2.904,0.298c-1.453,0.15-4.91,0.281-5.962,0.61c-1.982,0.594-4.036,1.241-5.98,1.94
		c-2.131,1.094-4.248,0.455-5.359-0.876c-0.649-0.362-2.72-1.61-6.52-1.521c0,0.027-24.507,6.21-26.122,6.441
		c0.271-0.039-3.841,0.347-5.307,0.515c-0.498,0.429-1.089,0.784-1.822,0.952c-3.652,0.838-7.124,1.326-10.839,0.76
		c-2.06-0.314-20.383-6.396-22.302-6.474c-6.368-0.26-24.47,1.59-27.043,1.287c-0.416-0.049-0.759-0.124-1.11-0.195
		c-0.003,0.017-0.005,0.035-0.007,0.052c-8.675-2.862-18.407-3.56-26.952-3.176c-1.578,0.071-2.688-0.536-3.341-1.446
		c-0.316-0.042-0.641-0.086-1.004-0.135c-2.425-0.333-4.229-5.748-4.912-6.259c-1.657-1.072-21.848,0.974-24.787,0.98
		c-4.032,0.009-10.132,0.03-12.808-3.616c-0.262-0.358-2.101-1.978-2.865-1.978c-0.007,0-0.013,0-0.02,0
		c-0.334,3.8-0.655,1.019-0.963,1.024c-0.865,0.016-3.013,0.26-3.404,0.374c-0.606,0.178-1.211,0.584-1.816,0.762
		c-1.627,0.478-6.755,0.12-8.523-0.052c-0.197-0.019-0.373-0.03-0.561-0.071c-0.627,0.32-1.308,0.55-1.961,0.554
		c-5.958,0.044-11.344-2.408-17.243-3.266c-1.436-0.209-14.236,4.834-15.922,5.244c-0.01,0.002-0.02,0.009-0.03,0.011
		c-2.326,0.565-8.463,0.381-9.67-0.532c-0.61-0.461-4.376,0.894-6.183-0.201c-1.026-0.186-2.068-0.374-3.093-0.56
		c-3.104-0.303-13.103,9.413-15.531,10.626c-5.65,2.822-9.443,2.571-15.708,2.269c-1.212-0.059-2.251-0.65-3.021-1.494
		c-2.154-0.333-4.323-0.226-6.603,0.305c-2.091,0.594-3.685-0.288-4.484-1.673c-1.054-0.16-2.088-0.339-3.132-0.769
		c-0.763-0.315-1.235-0.794-1.577-1.327c-1.082-0.187-2.176-0.296-3.272-0.298c-1.622-0.002-3.051-0.943-3.748-2.266
		c0.024,0.09,0.047,0.181,0.071,0.271c-0.366-0.26-0.7-0.555-0.991-0.876c-1.931,0.028-3.85,0.188-5.748,0.574
		c-2.191,2.544-6.039,0.77-7.024-1.772c-0.604-1.558-12.765,2.736-17.384-0.055c-1.236-0.747-2.345-1.341-3.439-1.895
		c-0.394,0.09-0.943,0.284-1.952,0.571c-2.699,0.768-13.996-3.566-14.958-4.798c-2.344-0.505-9.037,0.34-10.282,0.319
		c-0.63-0.05-3.015,0.898-3.9,1.148c-0.009,0.002-0.019,0.002-0.029,0.004c-2.567,0.674-4.753,0.64-6.545-0.483
		c-2.399-0.535-4.731-1.065-6.451-0.369c-2.536,1.026-5.836-0.209-6.275-2.726c-0.201-0.176-0.39-0.339-0.603-0.524
		c-1.058-0.912-6.564,5.659-10.952,5.111c-1.178,0.166-8.696,5.405-10.449,5.402c-0.802,0.349-1.604,0.699-2.407,1.049
		c-1.647,0.697-14.28,0.396-14.739,0.443c-1.754,0.184-8.598,2.804-8.964,4.288c-0.05,0.204-0.099,0.408-0.149,0.612
		c-0.701,2.841-18.646,5.789-19.92,5.732c-3.531-0.156-11.274-2.14-12.432-1.795c-4.11,1.225-9.372,1.085-13.882,1.085
		c-0.146,0-0.717,0.137-0.936,0.141c-1.631,0.033-9.709,0.406-11.394-0.187c-4.758-1.675-4.811-2.818-8.983-1.059
		c-2.051,0.865-10.906-2.231-13.507-2.481c-3.957-0.464-6.48-9.496-7.704-9.06c-0.777,0.277-15.126,6.521-16.453,6.487
		c-5.588-0.142-11.114-0.272-16.699-0.525c-0.791-0.036-4.77,1.532-6.49,1.497c-0.854,0.672-1.951,1.157-3.237,1.54
		c-1.412,0.419-2.783-0.378-4.106-0.234c-0.595,0.065-4.167,2.042-5.847,1.668c-6.598-1.469-9.443-1.839-14.172-5.627
		c-0.844-0.676-3.839-0.856-5.669-1.128c-1.316-0.195-15.323,2.751-17.038,2.643c-3.241-0.204-4.049-0.237-7.032-1.163
		c-0.984-0.305-7.075-0.611-8.634,0.835c-1.566,1.452-14.491,7.378-16.036,7.99c-0.379,0.15-0.648,0.25-0.855,0.323
		c-0.784,0.781-1.922,1.246-3.04,1.246c-0.394,0-4.98-0.244-6.253-1.016c-2.598-1.576-6.21-0.358-9.038-0.387
		c-0.741-0.008-1.404-0.203-1.985-0.513c-0.548-0.037-1.095-0.075-1.642-0.112c-1.083-0.074-6.407,0.033-7.376,0.115
		c-3.544,0.299-3.124-0.806-5.764-1.486c0.04,0.01-2.507-0.407-3.626-1.74c-0.543-0.647-3.444-2.793-4.737-2.924
		c-2.318-0.389-15.65-1.012-19.025,0.051c-5.578,1.757-9.431,2.025-15.499,2.822c-4.341,0.57-10.325-1.611-13.092-1.712
		c-7.626-0.282-18.291,4.303-25.304-0.193c-0.644-0.413-9.27-0.09-10.492,0.051c-0.073,0.016-2.002,1.434-3.301,1.35
		c-3.637-0.237-18.888,2.914-23.487,1.669c-1.458-0.395-4.542,1.743-6.419,1.716c-2.136-0.03-3.642-1.035-5.556-1.596
		c-2.641-0.773-9.799,1.128-11.94,0.649c-0.321-0.071-1.708,0.37-2.218,0.558c-5.557,2.051-30.998,2.437-35.38,1.269
		c-0.225-0.06-0.416-0.168-0.617-0.263c-0.883-0.014-1.775-0.086-2.68-0.214c-0.479-0.011-0.958-0.022-1.437-0.032
		c-2.52,0.114-26.775-2.177-34.925-3.444c-1.091-0.17-1.889-0.896-2.406-1.785c-0.717-0.58-4.232-1.309-5.229-1.074
		c-1.202,0.284-2.57,0.989-3.813,0.972c-0.293,0.099-1.202,0.374-1.34,0.461c-0.515,0.324-1.055,0.443-1.602,0.491
		c-2.199,0.561-4.775,0.7-7.039,0.651c-2.808-0.061-7.788-2.226-9.849-3.307c-0.226-0.163-0.372-0.327-0.501-0.491
		c-0.535-0.309-3.854,0.437-5.252,0.13c-1.301-0.286-2.431-0.625-3.445-1.119c-0.262,0.009-0.532,0.01-0.792,0.022
		c-1.578,0.071-2.689-0.536-3.341-1.446c-0.316-0.042-0.641-0.086-1.005-0.135c-2.425-0.333-9.308-4.449-10.443-5.215
		c-1.095-0.74-1.849-1.438-2.402-1.845c-0.03,0-0.059-0.321-0.089-0.321c0,0-2.047-0.111-2.796-0.779
		c-0.72-0.177-1.48-0.1-1.773-0.306c-0.206-0.145-0.382-0.325-0.558-0.503c-1.037,0.472-2.316,0.518-3.696-0.203
		c-0.041-0.024-0.075-0.046-0.115-0.069c-0.014,0.022-0.028,0.046-0.042,0.069c-0.266-0.176-0.533-0.352-0.8-0.528
		c-0.12-0.079-0.231-0.181-0.347-0.274c-0.275-0.17-1.137-0.252-1.306-0.165c-0.386,0.199-2.392,4.854-5.331,4.861
		c-4.032,0.009-10.133,0.03-12.808-3.616C755.298,31.62,753.459,30,752.696,30c-0.007,0-0.014,0-0.02,0
		c-0.334,3.8-0.655,1.019-0.963,1.024c-0.865,0.016-3.013,0.26-3.404,0.374c-0.605,0.178-1.211,0.584-1.817,0.762
		c-1.626,0.478-3.042,0.083-3.993-0.895c-1.377,0.571-2.761,1.072-4.53,0.901c-0.197-0.019-0.373-0.058-0.561-0.099
		c-0.627,0.32-1.309,0.535-1.961,0.54c-5.958,0.044-11.344-2.415-17.242-3.273c-1.437-0.209-12.859,1.053-12.837,1.37
		c0.12,1.718-1.399,3.463-3.086,3.873c-0.01,0.002-0.021,0.006-0.031,0.009c-2.326,0.565-8.463,0.38-9.669-0.533
		c-0.61-0.461-4.376,0.893-6.183-0.202c-1.026-0.186-2.067-0.374-3.094-0.56c-3.104-0.303-11.451,0.756-12.38,1.081
		c-0.686,1.033-0.722,8.331-3.151,9.544c-5.649,2.822-9.443,2.571-15.707,2.268c-1.213-0.059-2.251-0.65-3.021-1.494
		c-2.154-0.333-4.323-0.226-6.604,0.305c-2.092,0.594-3.684-0.288-4.484-1.673c-1.053-0.16-2.087-0.339-3.131-0.769
		c-0.763-0.315-1.235-0.794-1.577-1.327c-1.081-0.187-2.176-0.296-3.272-0.298c-1.622-0.002-3.052-0.943-3.748-2.266
		c0.023,0.09,0.046,0.181,0.07,0.271c-0.365-0.26-0.699-0.555-0.991-0.876c-1.931,0.028-3.849,0.188-5.747,0.574
		c-2.191,2.544-6.039,0.77-7.024-1.772c-0.604-1.558-12.765,2.736-17.385-0.055c-1.236-0.747-4.382-1.611-5.391-1.324
		c-2.699,0.768-23.995-4.459-25.24-4.479c-0.63-0.05-3.016,0.898-3.9,1.148c-0.009,0.002-0.02,0.002-0.029,0.004
		c-2.567,0.674-4.753,0.64-6.545-0.483c-2.398-0.535-4.731-1.065-6.451-0.369c-2.536,1.026-5.837-0.209-6.275-2.726
		c-0.201-0.176-0.389-0.339-0.603-0.524c-1.058-0.912-6.564,5.659-10.952,5.111c-1.178,0.166-8.696,5.405-10.448,5.402
		c-0.803,0.349-1.604,0.699-2.407,1.049c-1.647,0.697-14.28,0.396-14.739,0.443c-1.754,0.184-8.598,2.804-8.964,4.288
		c-0.05,0.204-0.099,0.408-0.149,0.612c-0.701,2.841-18.645,5.789-19.92,5.732c-3.531-0.156-11.273-2.009-12.431-1.664
		c-4.112,1.225-9.376,1.154-13.887,1.216c-0.006,0,0.005,0.002,0.002,0.003c-0.144,0.003-0.714,0.005-0.933,0.009
		c-1.631,0.032-9.71,0.29-11.394-0.303c-4.758-1.675-4.811-2.827-8.984-1.067c-2.05,0.865-10.906-2.237-13.506-2.487
		c-3.956-0.464-6.48-9.498-7.704-9.062c-0.777,0.277-15.127,6.521-16.453,6.487c-5.587-0.142-11.114-0.272-16.698-0.525
		c-0.792-0.036-8.441,2.654-9.728,3.037c-1.411,0.419-2.783-0.378-4.106-0.234c-0.595,0.065-4.167,2.042-5.847,1.668
		c-6.598-1.469-9.443-1.839-14.172-5.627c-0.844-0.676-3.839-0.856-5.67-1.128c-1.316-0.195-15.323,2.751-17.038,2.643
		c-3.24-0.204-4.049-0.237-7.032-1.163c-0.983-0.305-7.075-0.611-8.634,0.835c-1.566,1.452-14.491,7.378-16.036,7.99
		c-0.379,0.15-0.647,0.25-0.854,0.323c-0.784,0.781-1.922,1.246-3.041,1.246c-0.394,0-4.98-0.244-6.252-1.016
		c-2.599-1.576-6.21-0.358-9.038-0.387c-0.741-0.008-1.405-0.203-1.986-0.513c-0.548-0.037-1.095-0.075-1.642-0.112
		c-1.083-0.074-2.051-0.476-2.808-1.119c-0.738,0.011-1.388-0.003-1.51,0.106c-0.06,0.054-0.16,0.082-0.251,0.116
		c-0.777,0.621-1.838,0.93-2.807,1.012c-3.544,0.299-3.124-0.806-5.764-1.486c0.04,0.01-2.507-0.407-3.626-1.74
		c-0.543-0.647-3.444-2.793-4.737-2.924c-2.318-0.389-4.463-3.204-5.466-3.256c-3.372-0.173-10.184,2.244-13.559,3.307
		c-5.579,1.757-9.43,2.025-15.499,2.822c-4.341,0.57-10.325-1.611-13.092-1.712c-7.626-0.282-37.798,1.292-39.097,1.208
		c-3.637-0.237-13.05-2.077-15.408-2.396c-1.353-0.183-3.244,5.374-8.078,4.065c-1.458-0.395-4.542,1.743-6.419,1.716
		c-2.136-0.03-3.642-1.035-5.556-1.596c-2.64-0.773-9.799,1.128-11.94,0.649c-0.321-0.071-0.603-0.136-0.859-0.195
		c-0.402,0.3-0.848,0.565-1.359,0.753c-5.556,2.051-30.997,2.437-35.38,1.269c-0.362-0.097-0.688-0.249-0.994-0.425
		c-1.247-0.028-2.493-0.057-3.739-0.085c-2.52,0.114-26.775-2.177-34.925-3.444c-1.091-0.17-1.889-0.896-2.407-1.785
		c-1.34-1.083-3.385-1.509-5.229-1.074c-1.207,0.285-2.583,0.997-3.831,0.974c-0.263-0.005-1.092,0.314-1.323,0.459
		c-0.515,0.324-1.055,0.443-1.601,0.491c-2.199,0.561-4.775,0.7-7.039,0.651C2.585,47.148,0.703,43.547,0,43.938L0,0l1900,0V12.417z
		"/>
</g>
</svg>
