<svg width="30" height="30" viewBox="0 0 30 30" fill="none" xmlns="http://www.w3.org/2000/svg">
<circle cx="15" cy="15" r="15" fill="#292929"/>
<path d="M12.1916 15.3912H13.4936V20.8065C13.4936 20.9134 13.5793 21 13.6851 21H15.8927C15.9986 21 16.0843 20.9134 16.0843 20.8065V15.4167H17.5811C17.6784 15.4167 17.7603 15.3429 17.7714 15.2453L17.9987 13.2516C18.0049 13.1968 17.9877 13.1419 17.9514 13.1007C17.9151 13.0595 17.863 13.0359 17.8084 13.0359H16.0844V11.7862C16.0844 11.4095 16.2852 11.2185 16.6812 11.2185C16.7376 11.2185 17.8084 11.2185 17.8084 11.2185C17.9143 11.2185 18 11.1318 18 11.0249V9.19498C18 9.08806 17.9143 9.00143 17.8084 9.00143H16.2549C16.244 9.00089 16.2196 9 16.1838 9C15.9142 9 14.9773 9.05346 14.2372 9.74133C13.4172 10.5036 13.5312 11.4163 13.5584 11.5745V13.0359H12.1916C12.0857 13.0359 12 13.1225 12 13.2295V15.1976C12 15.3045 12.0857 15.3912 12.1916 15.3912Z" fill="#E0E0E0"/>
</svg>
