<svg width="30" height="30" viewBox="0 0 30 30" fill="none" xmlns="http://www.w3.org/2000/svg">
<circle cx="15" cy="15" r="15" fill="#292929"/>
<path d="M17.6884 9H12.3115C10.4855 9 9 10.4856 9 12.3116V17.6884C9 19.5145 10.4855 21 12.3115 21H17.6884C19.5145 21 21 19.5144 21 17.6884V12.3116C21.0001 10.4856 19.5145 9 17.6884 9ZM19.9354 17.6884C19.9354 18.9274 18.9274 19.9353 17.6884 19.9353H12.3115C11.0726 19.9354 10.0647 18.9274 10.0647 17.6884V12.3116C10.0647 11.0727 11.0726 10.0647 12.3115 10.0647H17.6884C18.9273 10.0647 19.9353 11.0727 19.9353 12.3116V17.6884H19.9354Z" fill="#E0E0E0"/>
<path d="M15 11.908C13.295 11.908 11.9079 13.2951 11.9079 15.0001C11.9079 16.7051 13.295 18.0921 15 18.0921C16.705 18.0921 18.0921 16.7051 18.0921 15.0001C18.0921 13.2951 16.705 11.908 15 11.908ZM15 17.0273C13.8821 17.0273 12.9726 16.1179 12.9726 15.0001C12.9726 13.8821 13.8821 12.9727 15 12.9727C16.1179 12.9727 17.0274 13.8821 17.0274 15.0001C17.0274 16.1179 16.1179 17.0273 15 17.0273Z" fill="#E0E0E0"/>
<path d="M18.2218 11.0053C18.0166 11.0053 17.8151 11.0883 17.6703 11.2338C17.5247 11.3786 17.441 11.5802 17.441 11.786C17.441 11.9912 17.5248 12.1927 17.6703 12.3383C17.8151 12.4831 18.0166 12.5668 18.2218 12.5668C18.4276 12.5668 18.6285 12.4831 18.774 12.3383C18.9195 12.1927 19.0026 11.9912 19.0026 11.786C19.0026 11.5802 18.9195 11.3786 18.774 11.2338C18.6292 11.0883 18.4276 11.0053 18.2218 11.0053Z" fill="#E0E0E0"/>
</svg>
