<svg width="30" height="30" viewBox="0 0 30 30" fill="none" xmlns="http://www.w3.org/2000/svg">
<circle cx="15" cy="15" r="15" fill="#292929"/>
<path d="M19.6175 15.5874C19.3911 15.3074 19.4559 15.1829 19.6175 14.9326C19.6204 14.9297 21.4889 12.4006 21.6814 11.5429L21.6826 11.5423C21.7782 11.2297 21.6826 11 21.22 11H19.6892C19.2996 11 19.1199 11.1971 19.0236 11.4177C19.0236 11.4177 18.2443 13.2451 17.1417 14.4297C16.7859 14.772 16.6214 14.8817 16.4271 14.8817C16.3315 14.8817 16.1827 14.772 16.1827 14.4594V11.5423C16.1827 11.1674 16.0736 11 15.751 11H13.3441C13.0997 11 12.9544 11.1749 12.9544 11.3377C12.9544 11.6931 13.5057 11.7749 13.5629 12.7749V14.9446C13.5629 15.42 13.4748 15.5074 13.2793 15.5074C12.759 15.5074 11.496 13.6726 10.7476 11.5726C10.5965 11.1651 10.4489 11.0006 10.0563 11.0006H8.52502C8.08809 11.0006 8 11.1977 8 11.4183C8 11.808 8.52035 13.7457 10.4198 16.3057C11.6856 18.0531 13.4684 19 15.0901 19C16.0649 19 16.1839 18.7897 16.1839 18.428C16.1839 16.7583 16.0958 16.6006 16.584 16.6006C16.8104 16.6006 17.2001 16.7103 18.1101 17.5531C19.1502 18.5526 19.3211 19 19.9033 19H21.434C21.8704 19 22.0915 18.7897 21.9643 18.3749C21.6732 17.5023 19.7062 15.7074 19.6175 15.5874Z" fill="#E0E0E0"/>
</svg>
